<?xml version="1.0" encoding="UTF-8" standalone="no"?><!DOCTYPE svg PUBLIC "-//W3C//DTD SVG 1.1//EN" "http://www.w3.org/Graphics/SVG/1.1/DTD/svg11.dtd"><svg width="100%" height="100%" viewBox="0 0 2048 2048" version="1.1" xmlns="http://www.w3.org/2000/svg" xmlns:xlink="http://www.w3.org/1999/xlink" xml:space="preserve" style="fill-rule:evenodd;clip-rule:evenodd;stroke-linejoin:round;stroke-miterlimit:1.41421;"><path d="M36.7,1488.7c0,44 32.9,94.6 73.1,112.5l841,374.3c40.2,17.9 106,17.8 146.1,-0.1l841.4,-376c40.2,-18 73,-68.6 73,-112.6l0,-928.6c0,-44 -32.9,-94.6 -73.1,-112.5l-841.3,-374.5c-40.2,-17.9 -106,-17.9 -146.2,0l-841,374.5c-40.2,17.9 -73.1,68.5 -73.1,112.5l0,930.5l0.1,0Z" style="fill:#000;fill-rule:nonzero;"/><path d="M1067.9,1432.2l-93.7,79.5c-39.7,34.1 -72.4,49.7 -127.7,49.7c-48.3,0 -92.3,-18.5 -124.9,-53.9c-39.7,-44 -46.8,-82.3 -46.8,-139.1l0,-372c0,-103.6 36.9,-168.9 113.6,-234.2l289.6,-247c36.9,-32.6 69.6,-58.2 120.6,-58.2c107.9,0 177.4,79.5 177.4,184.5l0,376.1c0,109.3 -28.4,171.7 -112.1,244.1l-83.7,72.4l35.5,85.2l83.7,0c42.6,0 76.6,25.6 76.6,71c0,59.6 -44,71 -93.7,71l-163.3,0l-51.1,-129.1ZM1126.1,1195.1l32.6,-27c65.3,-53.9 75.2,-73.8 75.2,-159l0,-353.3c0,-22.7 2.8,-56.8 -28.4,-56.8c-17,0 -27,14.2 -39.7,24.1l-285.3,247c-48.3,41.2 -63.9,68.1 -63.9,132l0,367.6c0,22.7 -1.4,49.7 31.2,49.7c15.6,0 31.2,-11.4 42.6,-21.3l122.1,-106.5l-36.9,-93.7c-8.5,-19.9 -19.9,-45.4 -19.9,-66.7c0,-38.3 34.1,-68.1 71,-68.1c55.4,0 63.9,48.3 82.3,90.8l17.1,41.2Z" style="fill:#f00;fill-rule:nonzero;"/></svg>